<svg t="1589163029815" class="icon" viewBox="0 0 1024 1024" version="1.1" xmlns="http://www.w3.org/2000/svg" p-id="9510" width="200" height="200"><path d="M148.72320574 733.78255722l349.47886571 181.46959302a43.04949345 43.04949345 0 0 0 41.69404862-1.10600532l-0.06118329 0 339.425983-199.74927304a39.4867443 39.4867443 0 0 0 19.92692195-35.06742935l-10.11877241-381.41182873c-0.37651246-14.25570301-8.66449301-27.17008038-21.76242009-33.99907518l-349.62005792-181.61078531c-13.02262474-6.73957308-28.96792742-6.30658372-41.63286536 1.10600543l-339.42127658 199.89517162a39.80207349 39.80207349 0 0 0-19.79984904 35.08625486l10.12347872 381.42594797a39.60911085 39.60911085 0 0 0 21.76712669 33.96142403z" fill="#39893C" p-id="9511"></path><path d="M539.83023033 914.14614492l349.23413259-616.22853112c-0.37651246-14.25570301-8.66449301-27.17008038-21.76242022-33.99907518l-349.62476428-181.61078531c-13.02262474-6.73957308-28.96792742-6.30658372-41.63286532 1.10600543l-349.09764686 616.40737445a39.60911085 39.60911085 0 0 0 21.77183303 33.95671758l349.47886577 181.46959306a43.04949345 43.04949345 0 0 0 41.69404858-1.10600534" fill="#2F7939" p-id="9512"></path><path d="M539.83023033 914.14614492l339.42598299-199.74927304a39.4867443 39.4867443 0 0 0 19.92692205-35.06742935l-381.42124161-597.01227634c-13.04145035-6.73957308-28.98204662-6.32540933-41.62815883 1.10600539l-339.42598313 199.88575878a39.6561749 39.6561749 0 0 0-19.87515147 35.08625486L498.20207145 915.25215024a43.04949345 43.04949345 0 0 0 41.69404862-1.10600531" fill="#4DA74F" p-id="9513"></path></svg>